<svg width="14" height="13" viewBox="0 0 14 13" fill="none" xmlns="http://www.w3.org/2000/svg">
<path d="M7.00001 12.2333L6.03334 11.3667C4.91112 10.3556 3.98334 9.48333 3.25001 8.75C2.51668 8.01667 1.93334 7.35822 1.50001 6.77467C1.06668 6.19156 0.76401 5.65556 0.59201 5.16667C0.419566 4.67778 0.333344 4.17778 0.333344 3.66667C0.333344 2.62222 0.683344 1.75 1.38334 1.05C2.08334 0.35 2.95557 0 4.00001 0C4.57779 0 5.12779 0.122222 5.65001 0.366667C6.17223 0.611111 6.62223 0.955555 7.00001 1.4C7.37779 0.955555 7.82779 0.611111 8.35001 0.366667C8.87223 0.122222 9.42223 0 10 0C11.0445 0 11.9167 0.35 12.6167 1.05C13.3167 1.75 13.6667 2.62222 13.6667 3.66667C13.6667 4.17778 13.5807 4.67778 13.4087 5.16667C13.2362 5.65556 12.9333 6.19156 12.5 6.77467C12.0667 7.35822 11.4833 8.01667 10.75 8.75C10.0167 9.48333 9.0889 10.3556 7.96668 11.3667L7.00001 12.2333ZM7.00001 10.4333C8.06668 9.47778 8.94445 8.65822 9.63334 7.97467C10.3222 7.29156 10.8667 6.69733 11.2667 6.192C11.6667 5.68622 11.9445 5.236 12.1 4.84133C12.2556 4.44711 12.3333 4.05556 12.3333 3.66667C12.3333 3 12.1111 2.44444 11.6667 2C11.2222 1.55556 10.6667 1.33333 10 1.33333C9.47779 1.33333 8.99445 1.48044 8.55001 1.77467C8.10557 2.06933 7.80001 2.44444 7.63334 2.9H6.36668C6.20001 2.44444 5.89445 2.06933 5.45001 1.77467C5.00557 1.48044 4.52223 1.33333 4.00001 1.33333C3.33334 1.33333 2.77779 1.55556 2.33334 2C1.8889 2.44444 1.66668 3 1.66668 3.66667C1.66668 4.05556 1.74445 4.44711 1.90001 4.84133C2.05557 5.236 2.33334 5.68622 2.73334 6.192C3.13334 6.69733 3.67779 7.29156 4.36668 7.97467C5.05557 8.65822 5.93334 9.47778 7.00001 10.4333Z" fill="#D1D1D1"/>
</svg>
