<svg width="170" height="25" viewBox="0 0 170 25" fill="none" xmlns="http://www.w3.org/2000/svg">
<g clip-path="url(#clip0_43_322)">
<path d="M154.1 19.3C153.3 19.3 152.3 18.9 152.3 16.8C152.3 14.7 153.2 14.3 154.1 14.3H164.5V19.2L154.1 19.3ZM162.1 0.200012H148.3V5.40001H161.8C163.8 5.40001 164.6 6.30001 164.6 8.60001V9.40001H153.4C149.1 9.40001 147 11.5 147 16.4V17.5C147 22.5 149.2 24.5 153.6 24.5H170V8.60001C169.9 2.50001 168 0.200012 162.1 0.200012Z" fill="#0059BC"/>
<path d="M125.3 0.200012V5.40001H133.1V24.5H138.6V5.40001H146.4V0.200012H125.3Z" fill="#0059BC"/>
<path d="M108.4 19.3C107.6 19.3 106.6 18.9 106.6 16.8C106.6 14.7 107.5 14.3 108.4 14.3H118.8V19.2L108.4 19.3ZM116.4 0.200012H102.6V5.40001H116.1C118.1 5.40001 118.9 6.30001 118.9 8.60001C118.9 8.60001 118.9 9.30001 118.9 9.40001H107.7C103.4 9.40001 101.3 11.5 101.3 16.4V17.5C101.3 22.5 103.5 24.5 107.9 24.5H124.3V8.60001C124.3 2.50001 122.2 0.200012 116.4 0.200012Z" fill="#0059BC"/>
<path d="M91 0.200012H76.3V24.4H91.3C97.2 24.5 99.1 21.5 99.1 15.9V8.80001C99.1 2.40001 96.6 0.200012 91 0.200012ZM93.5 16.1C93.5 18.4 92.7 19.3 90.7 19.3H81.8V5.50001H90.7C92.7 5.50001 93.5 6.40001 93.5 8.70001V16.1Z" fill="#0059BC"/>
<path d="M48.6 0.200012V5.40001H56.4V24.5H61.9V5.40001H69.7V0.200012H48.6Z" fill="#0059BC"/>
<path d="M25.8 0.200012V5.40001H33.6V24.5H39.1V5.40001H46.9V0.200012H25.8Z" fill="#0059BC"/>
<path d="M18 18.7C17.9 18.5 10.5 4.1 9.6 2.8C8.6 1.1 7.4 0 4.9 0C2.7 0 0 1 0 6.4V24.5H5.5V9.4C5.5 8.3 5.4 6.7 5.4 6.4C5.4 6.2 5.4 5.9 5.5 5.8C5.7 5.7 5.8 5.9 5.9 6C6 6.1 12.9 19.7 14.3 21.9C15.3 23.5 16.6 24.7 19 24.7C21.2 24.7 23.9 23.7 23.9 18.3V0.2H18.4V15.3C18.4 16.4 18.5 18 18.5 18.3C18.5 18.5 18.5 18.8 18.4 18.9C18.3 19.1 18.2 18.9 18 18.7Z" fill="#0059BC"/>
</g>
<defs>
<clipPath id="clip0_43_322">
<rect width="170" height="25" fill="white"/>
</clipPath>
</defs>
</svg>
