<svg width="120" height="24" viewBox="0 0 120 24" fill="none" xmlns="http://www.w3.org/2000/svg">
<path d="M7.8 2H16.2C19.4 2 22 4.6 22 7.8V16.2C22 17.7383 21.3889 19.2135 20.3012 20.3012C19.2135 21.3889 17.7383 22 16.2 22H7.8C4.6 22 2 19.4 2 16.2V7.8C2 6.26174 2.61107 4.78649 3.69878 3.69878C4.78649 2.61107 6.26174 2 7.8 2ZM7.6 4C6.64522 4 5.72955 4.37928 5.05442 5.05442C4.37928 5.72955 4 6.64522 4 7.6V16.4C4 18.39 5.61 20 7.6 20H16.4C17.3548 20 18.2705 19.6207 18.9456 18.9456C19.6207 18.2705 20 17.3548 20 16.4V7.6C20 5.61 18.39 4 16.4 4H7.6ZM17.25 5.5C17.5815 5.5 17.8995 5.6317 18.1339 5.86612C18.3683 6.10054 18.5 6.41848 18.5 6.75C18.5 7.08152 18.3683 7.39946 18.1339 7.63388C17.8995 7.8683 17.5815 8 17.25 8C16.9185 8 16.6005 7.8683 16.3661 7.63388C16.1317 7.39946 16 7.08152 16 6.75C16 6.41848 16.1317 6.10054 16.3661 5.86612C16.6005 5.6317 16.9185 5.5 17.25 5.5ZM12 7C13.3261 7 14.5979 7.52678 15.5355 8.46447C16.4732 9.40215 17 10.6739 17 12C17 13.3261 16.4732 14.5979 15.5355 15.5355C14.5979 16.4732 13.3261 17 12 17C10.6739 17 9.40215 16.4732 8.46447 15.5355C7.52678 14.5979 7 13.3261 7 12C7 10.6739 7.52678 9.40215 8.46447 8.46447C9.40215 7.52678 10.6739 7 12 7ZM12 9C11.2044 9 10.4413 9.31607 9.87868 9.87868C9.31607 10.4413 9 11.2044 9 12C9 12.7956 9.31607 13.5587 9.87868 14.1213C10.4413 14.6839 11.2044 15 12 15C12.7956 15 13.5587 14.6839 14.1213 14.1213C14.6839 13.5587 15 12.7956 15 12C15 11.2044 14.6839 10.4413 14.1213 9.87868C13.5587 9.31607 12.7956 9 12 9Z" fill="white"/>
<path d="M62 13.5H64.5L65.5 9.5H62V7.5C62 6.47 62 5.5 64 5.5H65.5V2.14C65.174 2.097 63.943 2 62.643 2C59.928 2 58 3.657 58 6.7V9.5H55V13.5H58V22H62V13.5Z" fill="white"/>
<path d="M115 3C115.53 3 116.039 3.21071 116.414 3.58579C116.789 3.96086 117 4.46957 117 5V19C117 19.5304 116.789 20.0391 116.414 20.4142C116.039 20.7893 115.53 21 115 21H101C100.47 21 99.9609 20.7893 99.5858 20.4142C99.2107 20.0391 99 19.5304 99 19V5C99 4.46957 99.2107 3.96086 99.5858 3.58579C99.9609 3.21071 100.47 3 101 3H115ZM114.5 18.5V13.2C114.5 12.3354 114.157 11.5062 113.545 10.8948C112.934 10.2835 112.105 9.94 111.24 9.94C110.39 9.94 109.4 10.46 108.92 11.24V10.13H106.13V18.5H108.92V13.57C108.92 12.8 109.54 12.17 110.31 12.17C110.681 12.17 111.037 12.3175 111.3 12.5801C111.563 12.8426 111.71 13.1987 111.71 13.57V18.5H114.5ZM102.88 8.56C103.326 8.56 103.753 8.383 104.068 8.06794C104.383 7.75288 104.56 7.32556 104.56 6.88C104.56 5.95 103.81 5.19 102.88 5.19C102.432 5.19 102.002 5.36805 101.685 5.68499C101.368 6.00193 101.19 6.43178 101.19 6.88C101.19 7.81 101.95 8.56 102.88 8.56ZM104.27 18.5V10.13H101.5V18.5H104.27Z" fill="white"/>
</svg>
