<svg width="137" height="10" viewBox="0 0 137 10" fill="none" xmlns="http://www.w3.org/2000/svg">
<path d="M52.8 0.599998C53.7 1.1 54.2 1.9 54.4 3.1H53.2C53.1 2.4 52.8 2 52.3 1.6C51.8 1.3 51.3 1.1 50.6 1.1C49.8 1.1 49 1.4 48.5 2.1C48 2.8 47.7 3.7 47.7 5C47.7 6.1 47.9 7 48.4 7.7C48.9 8.4 49.7 8.7 50.7 8.7C51.5 8.7 52.2 8.5 52.7 8C53.2 7.5 53.5 6.7 53.5 5.7H50.6V4.7H54.6V9.9H53.8L53.5 8.5C53.1 9 52.7 9.3 52.4 9.5C51.9 9.8 51.2 10 50.4 10C49.3 10 48.4 9.6 47.6 8.9C46.8 8 46.3 6.8 46.3 5.2C46.3 3.6 46.7 2.4 47.6 1.5C48.4 0.7 49.4 0.200001 50.6 0.200001C51.5 7.59959e-07 52.2 0.199998 52.8 0.599998ZM63.9 3.3C64.5 3.9 64.8 4.7 64.8 5.9C64.8 7 64.6 7.9 64 8.7C63.4 9.5 62.7 9.8 61.6 9.8C60.7 9.8 60 9.5 59.4 8.8C58.8 8.1 58.6 7.3 58.6 6.2C58.6 5.1 58.9 4.1 59.4 3.4C59.9 2.7 60.7 2.4 61.7 2.4C62.6 2.4 63.3 2.7 63.9 3.3ZM63.2 7.9C63.5 7.3 63.6 6.7 63.6 6C63.6 5.3 63.5 4.9 63.3 4.4C63 3.7 62.5 3.4 61.7 3.4C61 3.4 60.5 3.6 60.2 4.2C59.9 4.7 59.7 5.4 59.7 6.2C59.7 6.9 59.9 7.5 60.2 8C60.5 8.5 61 8.7 61.6 8.7C62.5 8.8 62.9 8.5 63.2 7.9ZM107.4 3.3C108 3.9 108.3 4.7 108.3 5.9C108.3 7 108.1 7.9 107.5 8.7C107 9.4 106.2 9.8 105.1 9.8C104.2 9.8 103.5 9.5 102.9 8.8C102.4 8.1 102.1 7.3 102.1 6.2C102.1 5.1 102.4 4.1 102.9 3.4C103.4 2.7 104.2 2.4 105.2 2.4C106 2.4 106.8 2.7 107.4 3.3ZM106.6 7.9C106.9 7.3 107 6.7 107 6C107 5.3 106.9 4.9 106.7 4.4C106.4 3.7 105.9 3.4 105.1 3.4C104.4 3.4 103.9 3.6 103.6 4.2C103.3 4.7 103.1 5.4 103.1 6.2C103.1 6.9 103.3 7.5 103.6 8C103.9 8.5 104.4 8.7 105 8.7C105.9 8.8 106.4 8.5 106.6 7.9ZM76.6 5.4C76.8 5.3 77 5.3 77.1 5C77.2 4.9 77.2 4.8 77.2 4.5C77.2 4.1 77.1 3.8 76.8 3.7C76.5 3.5 76.1 3.4 75.7 3.4C75.1 3.4 74.7 3.6 74.4 3.9C74.3 4.1 74.2 4.4 74.2 4.7H73.2C73.2 3.9 73.5 3.3 74 2.9C74.5 2.5 75.1 2.4 75.8 2.4C76.6 2.4 77.2 2.6 77.7 2.9C78.2 3.2 78.4 3.7 78.4 4.3V8.3C78.4 8.4 78.4 8.5 78.5 8.6C78.6 8.7 78.6 8.7 78.8 8.7C78.9 8.7 78.9 8.7 79 8.7C79.1 8.7 79.1 8.7 79.2 8.6V9.4C79 9.5 78.9 9.5 78.8 9.5C78.7 9.5 78.6 9.5 78.4 9.5C78 9.5 77.7 9.4 77.6 9.1C77.5 8.9 77.4 8.7 77.4 8.4C77.2 8.7 76.9 9 76.4 9.2C76 9.4 75.5 9.6 75 9.6C74.4 9.6 73.9 9.4 73.5 9C73.1 8.6 72.9 8.1 72.9 7.6C72.9 6.9 73.1 6.5 73.5 6.1C73.9 5.7 74.4 5.5 75 5.4H76.6ZM74.2 8.5C74.4 8.7 74.7 8.8 75 8.8C75.4 8.8 75.8 8.7 76.1 8.5C76.7 8.2 77.1 7.7 77.1 6.9V5.9C77 6 76.8 6.1 76.6 6.1C76.4 6.1 76.2 6.2 75.9 6.2L75.2 6.3C74.8 6.4 74.5 6.4 74.3 6.5C73.9 6.7 73.8 7 73.8 7.5C73.8 8 74 8.3 74.2 8.5ZM119.2 5.4C119.4 5.3 119.6 5.3 119.7 5C119.8 4.9 119.8 4.8 119.8 4.5C119.8 4.1 119.7 3.8 119.4 3.7C119.2 3.5 118.7 3.4 118.3 3.4C117.7 3.4 117.3 3.6 117 3.9C116.9 4.1 116.8 4.4 116.8 4.7H115.8C115.8 3.9 116.1 3.3 116.6 2.9C117.1 2.5 117.7 2.4 118.4 2.4C119.2 2.4 119.8 2.6 120.3 2.9C120.8 3.2 121 3.7 121 4.3V8.3C121 8.4 121 8.5 121.1 8.6C121.2 8.7 121.2 8.7 121.4 8.7C121.5 8.7 121.5 8.7 121.6 8.7C121.7 8.7 121.7 8.7 121.8 8.6V9.4C121.6 9.5 121.5 9.5 121.4 9.5C121.3 9.5 121.2 9.5 121 9.5C120.6 9.5 120.3 9.4 120.2 9.1C120.1 8.9 120 8.7 120 8.4C119.8 8.7 119.5 9 119 9.2C118.6 9.4 118.1 9.6 117.6 9.6C117 9.6 116.5 9.4 116.1 9C115.7 8.6 115.5 8.1 115.5 7.6C115.5 6.9 115.7 6.5 116.1 6.1C116.5 5.7 117 5.5 117.6 5.4H119.2ZM116.8 8.5C117 8.7 117.3 8.8 117.6 8.8C118 8.8 118.4 8.7 118.7 8.5C119.3 8.2 119.7 7.7 119.7 6.9V5.9C119.6 6 119.4 6.1 119.2 6.1C119 6.2 118.8 6.2 118.5 6.2L117.8 6.3C117.4 6.4 117.1 6.4 116.9 6.5C116.5 6.7 116.4 7 116.4 7.5C116.5 8 116.6 8.3 116.8 8.5ZM85.7 0H86.8V9.7H85.7V0ZM88.5 2.4H89.6V3.7C89.9 3.3 90.3 3 90.6 2.9C90.9 2.8 91.3 2.7 91.8 2.7C92.8 2.7 93.4 3.1 93.7 3.7C93.9 4.1 94 4.6 94 5.3V9.8H92.9V5.3C92.9 4.9 92.8 4.6 92.7 4.3C92.5 3.9 92.2 3.6 91.6 3.6C91.4 3.6 91.1 3.6 90.9 3.7C90.6 3.8 90.3 4 90.1 4.2C89.9 4.4 89.8 4.6 89.7 4.9C89.6 5.1 89.6 5.5 89.6 5.9V9.7H88.5V2.4ZM95.5 2.4H96.6V3.7C96.9 3.3 97.3 3 97.6 2.9C97.9 2.8 98.3 2.7 98.8 2.7C99.8 2.7 100.4 3.1 100.7 3.7C100.9 4.1 101 4.6 101 5.3V9.8H99.9V5.3C99.9 4.9 99.8 4.6 99.7 4.3C99.5 3.9 99.2 3.6 98.6 3.6C98.4 3.6 98.1 3.6 97.9 3.7C97.6 3.8 97.3 4 97.1 4.2C96.9 4.4 96.8 4.6 96.7 4.9C96.6 5.1 96.6 5.5 96.6 5.9V9.7H95.5V2.4ZM109.9 2.4L111.8 8.3L113.8 2.4H115.1L112.4 9.7H111.2L108.6 2.4H109.9ZM122.7 0H123.8V2.4H124.9V3.3H123.8V8.2C123.8 8.4 123.9 8.6 124 8.7C124.1 8.8 124.2 8.8 124.4 8.8C124.5 8.8 124.5 8.8 124.6 8.8C124.7 8.8 124.7 8.8 124.8 8.8V9.7C124.7 9.8 124.6 9.8 124.4 9.8C124.3 9.8 124.1 9.8 123.9 9.8C123.4 9.8 123 9.7 122.8 9.4C122.6 9.1 122.5 8.8 122.5 8.3V3.5H121.6V2.6H122.5L122.7 0ZM130.8 3.3C131.4 3.9 131.7 4.7 131.7 5.9C131.7 7 131.5 7.9 130.9 8.7C130.4 9.4 129.6 9.8 128.5 9.8C127.6 9.8 126.9 9.5 126.3 8.8C125.8 8.1 125.5 7.3 125.5 6.2C125.5 5.1 125.8 4.1 126.3 3.4C126.8 2.7 127.6 2.4 128.6 2.4C129.5 2.4 130.2 2.7 130.8 3.3ZM130.1 7.9C130.4 7.3 130.5 6.7 130.5 6C130.5 5.3 130.4 4.9 130.2 4.4C129.9 3.7 129.4 3.4 128.6 3.4C127.9 3.4 127.4 3.6 127.1 4.2C126.8 4.7 126.6 5.4 126.6 6.2C126.6 6.9 126.8 7.5 127.1 8.1C127.4 8.6 127.9 8.8 128.5 8.8C129.3 8.8 129.8 8.5 130.1 7.9ZM132.9 2.4H134V3.7C134.1 3.5 134.3 3.2 134.7 2.9C135.1 2.6 135.4 2.4 135.9 2.4H136C136.1 2.4 136.1 2.4 136.2 2.4V3.6C136.1 3.6 136.1 3.6 136 3.6C135.9 3.6 135.9 3.6 135.8 3.6C135.2 3.6 134.8 3.8 134.5 4.1C134.2 4.4 134 5.1 134 5.6V9.8H132.9V2.4ZM71.1 3.3C70.6 2.7 69.9 2.4 69.1 2.4C68.7 2.4 68.3 2.5 68 2.6C67.6 2.8 67.3 3 67.1 3.4V0H66V9.7H67.1V8.7C67.3 9 67.5 9.2 67.7 9.4C68.1 9.6 68.5 9.8 69 9.8C69.9 9.8 70.6 9.4 71.2 8.7C71.7 8 72 7.1 72 6C71.9 4.8 71.6 3.9 71.1 3.3ZM70.3 8C70 8.5 69.5 8.8 68.9 8.8C68.1 8.8 67.5 8.4 67.2 7.7C67 7.3 67 6.8 67 6.1C67 5.2 67.2 4.5 67.6 4.2C68 3.8 68.4 3.6 68.9 3.6C69.5 3.6 69.9 3.8 70.2 4.3C70.5 4.8 70.7 5.4 70.7 6.1C70.7 6.8 70.6 7.5 70.3 8ZM81.4 8.7C81.2 8.6 81.2 8.5 81.2 8.2V0H80.1V8.3C80.1 8.7 80.2 9.1 80.4 9.4C80.6 9.6 80.9 9.8 81.5 9.8C81.6 9.8 81.7 9.8 81.7 9.8V8.8C81.5 8.8 81.4 8.7 81.4 8.7ZM57.7 8.7C57.5 8.6 57.5 8.5 57.5 8.2V0H56.4V8.3C56.4 8.7 56.5 9.1 56.7 9.4C56.9 9.6 57.2 9.8 57.8 9.8C57.9 9.8 58 9.8 58 9.8V8.8C57.9 8.8 57.8 8.7 57.7 8.7ZM7.7 0V1.1H4.5V9.7H3.2V1.1H0V0H7.7ZM13.6 2.4V7.1C13.6 7.5 13.7 7.8 13.8 8C14 8.4 14.4 8.7 14.9 8.7C15.7 8.7 16.2 8.3 16.5 7.6C16.7 7.2 16.7 6.6 16.7 6V2.5H17.9V9.6H16.8V8.6C16.6 8.8 16.4 9.1 16.3 9.3C15.9 9.7 15.3 9.8 14.7 9.8C13.7 9.8 13.1 9.4 12.7 8.8C12.5 8.4 12.4 8 12.4 7.4V2.5L13.6 2.4ZM20.2 7.3C20.3 7.7 20.3 8 20.5 8.2C20.8 8.6 21.3 8.7 22.1 8.7C22.5 8.7 22.9 8.6 23.3 8.4C23.7 8.2 23.8 7.9 23.8 7.6C23.8 7.3 23.7 7.1 23.4 6.9C23.2 6.8 22.9 6.7 22.4 6.6L21.4 6.4C20.8 6.3 20.3 6.1 20.1 5.9C19.6 5.6 19.3 5.2 19.3 4.6C19.3 3.9 19.5 3.4 20 3C20.5 2.6 21.1 2.4 22 2.4C23.1 2.4 23.9 2.7 24.3 3.3C24.6 3.7 24.7 4.1 24.7 4.6H23.6C23.6 4.4 23.5 4.1 23.3 3.9C23 3.6 22.5 3.4 21.9 3.4C21.4 3.4 21.1 3.5 20.9 3.6C20.7 3.8 20.5 4 20.5 4.3C20.5 4.6 20.7 4.8 21 5C21.2 5.1 21.4 5.2 21.8 5.3L22.6 5.5C23.4 5.7 24 5.9 24.3 6.1C24.8 6.4 25 6.9 25 7.5C25 8.1 24.8 8.6 24.3 9.1C23.8 9.6 23.1 9.8 22.1 9.8C21 9.8 20.3 9.6 19.9 9.1C19.5 8.6 19.2 8.1 19.2 7.4L20.2 7.3ZM36.6 6C36.6 7.1 36.8 8 37.4 8.7C37.9 9.4 38.6 9.8 39.6 9.8C40.1 9.8 40.6 9.7 40.9 9.4C41.1 9.3 41.3 9 41.5 8.7V9.7H42.6V0H41.5V3.4C41.3 3 41 2.8 40.6 2.6C40.2 2.4 39.9 2.4 39.5 2.4C38.7 2.4 38 2.7 37.5 3.3C36.8 3.9 36.6 4.8 36.6 6ZM37.7 6C37.7 5.3 37.9 4.7 38.1 4.2C38.4 3.7 38.9 3.5 39.4 3.5C39.9 3.5 40.4 3.7 40.7 4.1C41.1 4.5 41.3 5.1 41.3 6C41.3 6.7 41.2 7.2 41.1 7.6C40.8 8.4 40.3 8.7 39.4 8.7C38.8 8.7 38.3 8.5 38 8C37.9 7.5 37.7 6.8 37.7 6ZM26.4 0H27.5V2.4H28.6V3.3H27.5V8.2C27.5 8.4 27.6 8.6 27.7 8.7C27.8 8.8 27.9 8.8 28.1 8.8C28.2 8.8 28.2 8.8 28.3 8.8C28.4 8.8 28.4 8.8 28.5 8.8V9.7C28.4 9.8 28.3 9.8 28.1 9.8C28 9.8 27.8 9.8 27.7 9.8C27.2 9.8 26.8 9.7 26.6 9.4C26.4 9.1 26.3 8.8 26.3 8.3V3.5H25.4V2.6H26.3L26.4 0ZM34.1 2.8C34.6 3 34.9 3.3 35.2 3.7C35.5 4.1 35.6 4.5 35.7 4.9C35.8 5.2 35.8 5.7 35.8 6.4H30.7C30.7 7.1 30.9 7.7 31.2 8.1C31.5 8.5 32 8.8 32.6 8.8C33.2 8.8 33.7 8.6 34 8.2C34.2 8 34.4 7.7 34.4 7.4H35.5C35.4 7.6 35.4 7.9 35.2 8.2C35 8.5 34.8 8.7 34.6 9C34.2 9.4 33.8 9.6 33.3 9.7C33 9.8 32.7 9.8 32.3 9.8C31.5 9.8 30.7 9.5 30.1 8.8C29.5 8.2 29.2 7.3 29.2 6.2C29.2 5.1 29.5 4.2 30.1 3.5C30.7 2.8 31.5 2.5 32.5 2.5C33.2 2.4 33.6 2.5 34.1 2.8ZM34.5 5.5C34.4 5 34.3 4.6 34.2 4.3C33.9 3.8 33.4 3.5 32.6 3.5C32.1 3.5 31.6 3.7 31.3 4.1C30.9 4.5 30.8 5 30.7 5.6L34.5 5.5ZM8 2.4H9.1V3.7C9.2 3.5 9.4 3.2 9.8 2.9C10.2 2.6 10.5 2.4 11 2.4H11.1C11.1 2.4 11.2 2.4 11.3 2.4V3.6C11.2 3.6 11.2 3.6 11.1 3.6C11 3.6 11 3.6 10.9 3.6C10.4 3.6 9.9 3.8 9.6 4.1C9.3 4.4 9.1 5.1 9.1 5.6V9.7H8V2.4Z" fill="white"/>
</svg>
